<svg xmlns="http://www.w3.org/2000/svg" viewBox="0 0 240 240" width="180" height="180">
  <defs>
    <linearGradient id="gLeaf" x1="0%" y1="0%" x2="100%" y2="100%">
      <stop offset="0%" stop-color="#66BB6A"/>
      <stop offset="100%" stop-color="#2E7D32"/>
    </linearGradient>
    <linearGradient id="gRing" x1="0%" y1="0%" x2="100%" y2="100%">
      <stop offset="0%" stop-color="#2E7D32"/>
      <stop offset="100%" stop-color="#1B4332"/>
    </linearGradient>
  </defs>
  <!-- Background -->
  <rect width="240" height="240" fill="white" rx="40"/>
  <!-- Vòng ngoài -->
  <circle cx="120" cy="120" r="88" fill="none" stroke="url(#gRing)" stroke-width="12" stroke-linecap="round"/>
  <!-- Lá -->
  <path d="M120 70c-22 8-42 34-42 56 0 21 14 35 32 35 16 0 24-10 29-19-2 11-6 22-13 29-3 3-2 6 2 6 21-5 45-32 45-64 0-27-21-46-53-43z"
        fill="url(#gLeaf)"/>
  <!-- Gân lá -->
  <path d="M120 70c-8 43-8 74-3 99" fill="none" stroke="#FFF" stroke-width="3" stroke-linecap="round" opacity=".85"/>
  <path d="M112 130c6 6 11 14 14 24" stroke="#FFF" stroke-width="2" fill="none" stroke-linecap="round" opacity=".7"/>
</svg>
