<svg xmlns="http://www.w3.org/2000/svg" viewBox="0 0 240 240" role="img" aria-labelledby="title desc">
  <title id="title">Logo CayXanh - Concept 1</title>
  <desc id="desc">Biểu tượng chiếc lá cách điệu trong vòng tròn biểu trưng cho sự bền vững và tăng trưởng xanh.</desc>
  <defs>
    <linearGradient id="gLeaf" x1="0%" y1="0%" x2="100%" y2="100%">
      <stop offset="0%" stop-color="#66BB6A"/>
      <stop offset="100%" stop-color="#2E7D32"/>
    </linearGradient>
    <linearGradient id="gRing" x1="0%" y1="0%" x2="100%" y2="100%">
      <stop offset="0%" stop-color="#2E7D32"/>
      <stop offset="100%" stop-color="#1B4332"/>
    </linearGradient>
  </defs>
  <!-- Vòng ngoài -->
  <circle cx="120" cy="120" r="108" fill="none" stroke="url(#gRing)" stroke-width="16" stroke-linecap="round"/>
  <!-- Lá -->
  <path d="M120 60c-28 10-52 42-52 70 0 26 18 44 40 44 20 0 30-12 36-24-2 14-8 28-16 36-4 4-2 8 2 8 26-6 56-40 56-80 0-34-26-58-66-54z"
        fill="url(#gLeaf)"/>
  <!-- Gân lá -->
  <path d="M120 60c-10 54-10 92-4 124" fill="none" stroke="#FFF" stroke-width="4" stroke-linecap="round" opacity=".85"/>
  <path d="M110 122c8 8 14 18 18 30" stroke="#FFF" stroke-width="3" fill="none" stroke-linecap="round" opacity=".7"/>
  <!-- Tên -->
  <text x="120" y="222" font-size="28" font-family="Arial, 'Helvetica Neue', Helvetica, sans-serif" fill="#1B4332" text-anchor="middle" font-weight="600" letter-spacing="1">
    CayXanh
  </text>
</svg>